<svg xmlns="http://www.w3.org/2000/svg" fill="none" viewBox="0 0 1398 184"><path fill="#000" fill-rule="evenodd" d="M104.773 184a30.671 30.671 0 0 1-29.237-21.395L54.758 97.111H41.983a30.672 30.672 0 0 1-29.237-21.395L.4 36.8h46.31L22.283 0h231.432L229.29 36.8h46.31l-12.346 38.916a30.673 30.673 0 0 1-29.237 21.395h-12.775l-20.778 65.494A30.672 30.672 0 0 1 171.227 184h-66.454ZM89.075 79.222c0 9.88 7.378 17.89 16.479 17.89 9.101 0 16.478-8.01 16.478-17.89s-7.377-17.889-16.478-17.889c-9.1 0-16.479 8.01-16.479 17.89Zm97.849 0c0 9.88-7.377 17.89-16.478 17.89-9.101 0-16.478-8.01-16.478-17.89s7.377-17.889 16.478-17.889c9.101 0 16.478 8.01 16.478 17.89Z" clip-rule="evenodd"/><path fill="#000" d="M381.808 129.816c-8.976 0-17.272-2.221-24.888-6.664-7.525-4.533-13.509-10.608-17.952-18.224-4.443-7.616-6.664-15.912-6.664-24.888s2.221-17.272 6.664-24.888c4.443-7.616 10.427-13.645 17.952-18.088 7.616-4.533 15.912-6.8 24.888-6.8 7.888 0 14.915 1.768 21.08 5.304 6.256 3.445 11.288 7.888 15.096 13.328 3.808 5.44 6.256 11.107 7.344 17H406.56c-.997-3.355-2.765-6.347-5.304-8.976-2.448-2.72-5.395-4.805-8.84-6.256-3.445-1.541-6.981-2.312-10.608-2.312-5.712 0-10.971 1.45-15.776 4.352-4.805 2.81-8.613 6.619-11.424 11.424s-4.216 10.11-4.216 15.912c0 5.803 1.405 11.107 4.216 15.912 2.811 4.805 6.619 8.659 11.424 11.56 4.805 2.811 10.064 4.216 15.776 4.216 5.803 0 10.971-1.496 15.504-4.488 4.624-3.083 7.752-7.299 9.384-12.648h18.768c-1.088 6.347-3.581 12.195-7.48 17.544-3.808 5.349-8.84 9.656-15.096 12.92-6.165 3.173-13.192 4.76-21.08 4.76Zm88.646 0c-6.346 0-12.194-1.587-17.543-4.76-5.35-3.264-9.566-7.616-12.648-13.056-3.083-5.531-4.624-11.56-4.624-18.088 0-6.528 1.541-12.512 4.624-17.952 3.082-5.53 7.298-9.883 12.648-13.056 5.349-3.264 11.197-4.896 17.543-4.896h.137c6.256 0 12.013 1.632 17.272 4.896 5.349 3.173 9.565 7.525 12.647 13.056 3.174 5.53 4.761 11.515 4.761 17.952 0 6.437-1.587 12.421-4.761 17.952-3.082 5.531-7.298 9.928-12.647 13.192-5.259 3.173-11.016 4.76-17.272 4.76h-.137Zm.137-17.952c2.992 0 5.757-.816 8.296-2.448 2.538-1.632 4.533-3.808 5.984-6.528 1.541-2.72 2.311-5.712 2.311-8.976 0-3.173-.77-6.12-2.311-8.84-1.451-2.81-3.446-5.032-5.984-6.664-2.539-1.632-5.304-2.448-8.296-2.448h-.137c-3.082 0-5.938.816-8.567 2.448-2.539 1.632-4.579 3.853-6.12 6.664-1.451 2.72-2.176 5.667-2.176 8.84s.725 6.165 2.176 8.976c1.541 2.72 3.581 4.896 6.12 6.528 2.629 1.632 5.485 2.448 8.567 2.448h.137ZM632.458 31.08 605.666 129h-18.632l-14.008-51.68c-.363-1.36-.771-2.856-1.224-4.488a97.248 97.248 0 0 0-1.224-4.896 212.936 212.936 0 0 0-1.088-4.896l-1.088-4.624h-.136c-.363 1.45-.771 2.947-1.224 4.488a393.154 393.154 0 0 0-1.088 4.76c-.363 1.632-.771 3.31-1.224 5.032a57.164 57.164 0 0 1-1.224 4.624L549.498 129h-18.632l-26.928-97.92h18.496l13.872 51.68c.363 1.36.725 2.81 1.088 4.352l1.088 4.624c.363 1.632.725 3.219 1.088 4.76.363 1.541.635 3.037.816 4.488h.136c.363-1.723.771-3.49 1.224-5.304.453-1.813.907-3.672 1.36-5.576.272-1.36.544-2.63.816-3.808.363-1.179.68-2.357.952-3.536l14.008-51.68h18.632l14.008 51.68c.272.997.544 2.04.816 3.128.272.997.544 2.085.816 3.264.907 3.264 1.904 7.208 2.992 11.832h.136c.181-.907.317-1.813.408-2.72a42.43 42.43 0 0 1 .68-2.856c.997-4.715 1.995-8.93 2.992-12.648l13.6-51.68h18.496Zm118.291 18.088h-48.688v22.576h43.792v17.952h-43.792V129h-18.088V31.08h66.776v18.088Zm41.643 80.648c-6.347 0-12.195-1.587-17.544-4.76-5.349-3.264-9.565-7.616-12.648-13.056-3.083-5.531-4.624-11.56-4.624-18.088 0-6.528 1.541-12.512 4.624-17.952 3.083-5.53 7.299-9.883 12.648-13.056 5.349-3.264 11.197-4.896 17.544-4.896h.136c6.256 0 12.013 1.632 17.272 4.896 5.349 3.173 9.565 7.525 12.648 13.056 3.173 5.53 4.76 11.515 4.76 17.952 0 6.437-1.587 12.421-4.76 17.952-3.083 5.531-7.299 9.928-12.648 13.192-5.259 3.173-11.016 4.76-17.272 4.76h-.136Zm.136-17.952c2.992 0 5.757-.816 8.296-2.448 2.539-1.632 4.533-3.808 5.984-6.528 1.541-2.72 2.312-5.712 2.312-8.976 0-3.173-.771-6.12-2.312-8.84-1.451-2.81-3.445-5.032-5.984-6.664-2.539-1.632-5.304-2.448-8.296-2.448h-.136c-3.083 0-5.939.816-8.568 2.448-2.539 1.632-4.579 3.853-6.12 6.664-1.451 2.72-2.176 5.667-2.176 8.84s.725 6.165 2.176 8.976c1.541 2.72 3.581 4.896 6.12 6.528 2.629 1.632 5.485 2.448 8.568 2.448h.136Zm73.289 17.952c-5.259 0-9.837-1.088-13.736-3.264-3.808-2.176-6.755-5.44-8.84-9.792-2.085-4.443-3.128-9.973-3.128-16.592V58.824h18.088v39.168c0 4.08 1.269 7.389 3.808 9.928 2.539 2.539 5.667 3.808 9.384 3.808 2.448 0 4.669-.589 6.664-1.768a12.713 12.713 0 0 0 4.896-4.896c1.179-2.176 1.768-4.579 1.768-7.208V58.824h18.088V129h-17.544v-9.248c-2.085 3.083-4.851 5.531-8.296 7.344-3.445 1.813-7.163 2.72-11.152 2.72Zm92.462-71.808c5.259 0 9.792 1.088 13.6 3.264 3.899 2.176 6.891 5.485 8.976 9.928 2.085 4.352 3.128 9.837 3.128 16.456V129h-18.088V89.832c0-4.08-1.269-7.39-3.808-9.928-2.539-2.539-5.667-3.808-9.384-3.808-2.448 0-4.715.59-6.8 1.768-1.995 1.179-3.581 2.856-4.76 5.032-1.179 2.085-1.768 4.443-1.768 7.072V129h-18.088V58.824h17.544v9.248c2.085-3.083 4.851-5.53 8.296-7.344 3.445-1.813 7.163-2.72 11.152-2.72ZM1066.38 129h-18.09v-9.52c-2.26 3.536-5.12 6.165-8.57 7.888-3.44 1.632-7.34 2.448-11.69 2.448-5.44 0-10.52-1.541-15.23-4.624-4.63-3.083-8.3-7.344-11.02-12.784-2.719-5.531-4.079-11.696-4.079-18.496 0-6.8 1.36-12.92 4.079-18.36 2.72-5.53 6.39-9.837 11.02-12.92 4.71-3.083 9.79-4.624 15.23-4.624 3.99 0 7.75.952 11.29 2.856 3.62 1.904 6.62 4.397 8.97 7.48V31.08h18.09V129Zm-34.27-17.136c2.99 0 5.71-.771 8.16-2.312 2.54-1.632 4.49-3.808 5.85-6.528 1.45-2.811 2.17-5.848 2.17-9.112 0-3.264-.72-6.256-2.17-8.976-1.36-2.81-3.27-4.987-5.71-6.528-2.45-1.632-5.22-2.448-8.3-2.448-2.99 0-5.76.816-8.3 2.448-2.45 1.541-4.44 3.717-5.98 6.528a19.309 19.309 0 0 0-2.18 8.976c0 3.173.73 6.165 2.18 8.976 1.54 2.811 3.53 5.032 5.98 6.664 2.54 1.541 5.31 2.312 8.3 2.312Zm116.75-53.04V129h-18.09v-8.976c-2.72 3.083-5.85 5.485-9.38 7.208-3.45 1.723-7.17 2.584-11.16 2.584-5.53 0-10.6-1.587-15.23-4.76-4.53-3.264-8.16-7.616-10.88-13.056-2.63-5.531-3.94-11.56-3.94-18.088 0-6.528 1.31-12.512 3.94-17.952 2.72-5.53 6.35-9.883 10.88-13.056 4.63-3.264 9.7-4.896 15.23-4.896 3.99 0 7.76.861 11.29 2.584 3.54 1.723 6.62 4.125 9.25 7.208v-8.976h18.09Zm-34.27 53.04c2.9 0 5.57-.816 8.02-2.448 2.54-1.632 4.53-3.808 5.98-6.528a19.31 19.31 0 0 0 2.18-8.976c0-3.173-.73-6.12-2.18-8.84-1.45-2.81-3.44-4.987-5.98-6.528-2.45-1.632-5.12-2.448-8.02-2.448-3 0-5.76.816-8.3 2.448-2.54 1.541-4.53 3.717-5.98 6.528-1.46 2.72-2.18 5.667-2.18 8.84s.72 6.165 2.18 8.976c1.45 2.72 3.44 4.896 5.98 6.528 2.54 1.632 5.3 2.448 8.3 2.448Zm84.35 1.36c2.72 0 5.3-.181 7.75-.544v15.504c-3.17 1.088-6.84 1.632-11.01 1.632-5.17 0-9.48-.771-12.92-2.312-3.45-1.541-6.08-4.035-7.89-7.48-1.81-3.445-2.72-8.069-2.72-13.872V74.6h-11.43V58.824h11.43V38.832h18.09v19.992h16.59V74.6h-16.59v31.144c0 2.629.77 4.533 2.31 5.712 1.54 1.179 3.67 1.768 6.39 1.768Zm30.68-62.152c-3.35 0-6.21-1.179-8.57-3.536-2.35-2.357-3.53-5.259-3.53-8.704 0-3.355 1.18-6.165 3.53-8.432 2.36-2.357 5.22-3.536 8.57-3.536 3.36 0 6.26 1.179 8.71 3.536 2.44 2.267 3.67 5.077 3.67 8.432 0 3.355-1.27 6.256-3.81 8.704-2.45 2.357-5.3 3.536-8.57 3.536ZM1220.51 129V58.824h18.09V129h-18.09Zm66.61.816c-6.35 0-12.2-1.587-17.55-4.76-5.34-3.264-9.56-7.616-12.64-13.056-3.09-5.531-4.63-11.56-4.63-18.088 0-6.528 1.54-12.512 4.63-17.952 3.08-5.53 7.3-9.883 12.64-13.056 5.35-3.264 11.2-4.896 17.55-4.896h.13c6.26 0 12.02 1.632 17.28 4.896 5.35 3.173 9.56 7.525 12.64 13.056 3.18 5.53 4.76 11.515 4.76 17.952 0 6.437-1.58 12.421-4.76 17.952-3.08 5.531-7.29 9.928-12.64 13.192-5.26 3.173-11.02 4.76-17.28 4.76h-.13Zm.13-17.952c3 0 5.76-.816 8.3-2.448 2.54-1.632 4.53-3.808 5.98-6.528 1.55-2.72 2.32-5.712 2.32-8.976 0-3.173-.77-6.12-2.32-8.84-1.45-2.81-3.44-5.032-5.98-6.664-2.54-1.632-5.3-2.448-8.3-2.448h-.13c-3.08 0-5.94.816-8.57 2.448-2.54 1.632-4.58 3.853-6.12 6.664-1.45 2.72-2.18 5.667-2.18 8.84s.73 6.165 2.18 8.976c1.54 2.72 3.58 4.896 6.12 6.528 2.63 1.632 5.49 2.448 8.57 2.448h.13Zm85.01-53.856c5.25 0 9.79 1.088 13.6 3.264 3.89 2.176 6.89 5.485 8.97 9.928 2.09 4.352 3.13 9.837 3.13 16.456V129h-18.09V89.832c0-4.08-1.27-7.39-3.81-9.928-2.54-2.539-5.66-3.808-9.38-3.808-2.45 0-4.72.59-6.8 1.768-2 1.179-3.58 2.856-4.76 5.032-1.18 2.085-1.77 4.443-1.77 7.072V129h-18.09V58.824h17.55v9.248c2.08-3.083 4.85-5.53 8.29-7.344 3.45-1.813 7.17-2.72 11.16-2.72Z"/></svg>